{
  "accessors": [
    {
      "bufferView": 2,
      "componentType": 5126,
      "count": 5841,
      "max": [
        374.91641235351562,
        250.44999694824219,
        1825.935546875
      ],
      "min": [
        -398.03350830078125,
        -287.01849365234375,
        21.212799072265625
      ],
      "type": "VEC3"
    },
    {
      "bufferView": 2,
      "byteOffset": 70092,
      "componentType": 5126,
      "count": 5841,
      "max": [
        1,
        0.99998903274536133,
        0.99999988079071045
      ],
      "min": [
        -1,
        -0.99999713897705078,
        -0.99999988079071045
      ],
      "type": "VEC3"
    },
    {
      "bufferView": 3,
      "componentType": 5126,
      "count": 5841,
      "max": [
        1,
        1,
        0.9997977614402771,
        1
      ],
      "min": [
        -1,
        -1,
        -0.99998533725738525,
        -1
      ],
      "type": "VEC4"
    },
    {
      "bufferView": 1,
      "componentType": 5126,
      "count": 5841,
      "max": [
        0.98830002546310425,
        0.99949997663497925
      ],
      "min": [
        0.00050000002374872565,
        0.00050000002374872565
      ],
      "type": "VEC2"
    },
    {
      "bufferView": 0,
      "componentType": 5125,
      "count": 18156,
      "max": [
        5840
      ],
      "min": [
        0
      ],
      "type": "SCALAR"
    },
    {
      "bufferView": 2,
      "byteOffset": 140184,
      "componentType": 5126,
      "count": 21003,
      "max": [
        449.81320190429688,
        -50.167999267578125,
        1285.7325439453125
      ],
      "min": [
        -351.08108520507812,
        -585.769775390625,
        707.63232421875
      ],
      "type": "VEC3"
    },
    {
      "bufferView": 2,
      "byteOffset": 392220,
      "componentType": 5126,
      "count": 21003,
      "max": [
        0.99918460845947266,
        0.99961370229721069,
        0.99969905614852905
      ],
      "min": [
        -0.99916923046112061,
        -0.99961370229721069,
        -0.99983042478561401
      ],
      "type": "VEC3"
    },
    {
      "bufferView": 3,
      "byteOffset": 93456,
      "componentType": 5126,
      "count": 21003,
      "max": [
        0.99652069807052612,
        0.99807971715927124,
        0.99998682737350464,
        1
      ],
      "min": [
        -0.99871915578842163,
        -0.99699527025222778,
        -0.99960076808929443,
        -1
      ],
      "type": "VEC4"
    },
    {
      "bufferView": 1,
      "byteOffset": 46728,
      "componentType": 5126,
      "count": 21003,
      "max": [
        0.99659997224807739,
        0.98909997940063477
      ],
      "min": [
        0.00050000002374872565,
        0.00050000002374872565
      ],
      "type": "VEC2"
    },
    {
      "bufferView": 0,
      "byteOffset": 72624,
      "componentType": 5125,
      "count": 74376,
      "max": [
        21002
      ],
      "min": [
        0
      ],
      "type": "SCALAR"
    },
    {
      "bufferView": 2,
      "byteOffset": 644256,
      "componentType": 5126,
      "count": 15569,
      "max": [
        449.81320190429688,
        -50.167999267578125,
        1285.7325439453125
      ],
      "min": [
        -350.87991333007812,
        -585.669921875,
        707.63232421875
      ],
      "type": "VEC3"
    },
    {
      "bufferView": 2,
      "byteOffset": 831084,
      "componentType": 5126,
      "count": 15569,
      "max": [
        0.9999462366104126,
        0.9956282377243042,
        0.99906432628631592
      ],
      "min": [
        -0.9945145845413208,
        -0.99803239107131958,
        -0.99957019090652466
      ],
      "type": "VEC3"
    },
    {
      "bufferView": 3,
      "byteOffset": 429504,
      "componentType": 5126,
      "count": 15569,
      "max": [
        0.9999275803565979,
        0.99786591529846191,
        0.99862957000732422,
        1
      ],
      "min": [
        -0.99988436698913574,
        -0.9908146858215332,
        -0.99965441226959229,
        -1
      ],
      "type": "VEC4"
    },
    {
      "bufferView": 1,
      "byteOffset": 214752,
      "componentType": 5126,
      "count": 15569,
      "max": [
        0.99819999933242798,
        0.99870002269744873
      ],
      "min": [
        0.00050000002374872565,
        0.00050000002374872565
      ],
      "type": "VEC2"
    },
    {
      "bufferView": 0,
      "byteOffset": 370128,
      "componentType": 5125,
      "count": 49086,
      "max": [
        15568
      ],
      "min": [
        0
      ],
      "type": "SCALAR"
    },
    {
      "bufferView": 2,
      "byteOffset": 1017912,
      "componentType": 5126,
      "count": 5145,
      "max": [
        439.56338500976562,
        -56.815498352050781,
        1277.750244140625
      ],
      "min": [
        -351.08108520507812,
        -585.769775390625,
        707.63232421875
      ],
      "type": "VEC3"
    },
    {
      "bufferView": 2,
      "byteOffset": 1079652,
      "componentType": 5126,
      "count": 5145,
      "max": [
        0.99967509508132935,
        0.98668199777603149,
        0.99921166896820068
      ],
      "min": [
        -0.99091333150863647,
        -0.98668199777603149,
        -0.9997519850730896
      ],
      "type": "VEC3"
    },
    {
      "bufferView": 3,
      "byteOffset": 678608,
      "componentType": 5126,
      "count": 5145,
      "max": [
        0.98586529493331909,
        0.99902892112731934,
        0.99782633781433105,
        1
      ],
      "min": [
        -0.95976519584655762,
        -0.99596089124679565,
        -0.99633610248565674,
        -1
      ],
      "type": "VEC4"
    },
    {
      "bufferView": 1,
      "byteOffset": 339304,
      "componentType": 5126,
      "count": 5145,
      "max": [
        0.99949997663497925,
        0.98559999465942383
      ],
      "min": [
        0.00050000002374872565,
        0.00050000002374872565
      ],
      "type": "VEC2"
    },
    {
      "bufferView": 0,
      "byteOffset": 566472,
      "componentType": 5125,
      "count": 14124,
      "max": [
        5144
      ],
      "min": [
        0
      ],
      "type": "SCALAR"
    }
  ],
  "asset": {
    "extras": {
      "author": "Bzovius (https://sketchfab.com/Bzovius)",
      "license": "CC-BY-4.0 (http://creativecommons.org/licenses/by/4.0/)",
      "source": "https://sketchfab.com/3d-models/russian-soldier-66df4b2856194d40a546afe2d1d77cfe",
      "title": "Russian Soldier"
    },
    "generator": "Sketchfab-9.47.0",
    "version": "2.0"
  },
  "bufferViews": [
    {
      "buffer": 0,
      "byteLength": 622968,
      "byteOffset": 0,
      "name": "floatBufferViews",
      "target": 34963
    },
    {
      "buffer": 0,
      "byteLength": 380464,
      "byteOffset": 622968,
      "byteStride": 8,
      "name": "floatBufferViews",
      "target": 34962
    },
    {
      "buffer": 0,
      "byteLength": 1141392,
      "byteOffset": 1003432,
      "byteStride": 12,
      "name": "floatBufferViews",
      "target": 34962
    },
    {
      "buffer": 0,
      "byteLength": 760928,
      "byteOffset": 2144824,
      "byteStride": 16,
      "name": "floatBufferViews",
      "target": 34962
    }
  ],
  "buffers": [
    {
      "byteLength": 2905752,
      "uri": "scene.bin"
    }
  ],
  "images": [
    {
      "uri": "textures/material_baseColor.png"
    },
    {
      "uri": "textures/material_metallicRoughness.png"
    },
    {
      "uri": "textures/material_normal.png"
    },
    {
      "uri": "textures/material_1_baseColor.png"
    },
    {
      "uri": "textures/material_1_metallicRoughness.png"
    },
    {
      "uri": "textures/material_1_normal.png"
    }
  ],
  "materials": [
    {
      "doubleSided": true,
      "name": "material",
      "normalTexture": {
        "index": 2,
        "scale": 1,
        "texCoord": 0
      },
      "pbrMetallicRoughness": {
        "baseColorFactor": [
          1,
          1,
          1,
          1
        ],
        "baseColorTexture": {
          "index": 0,
          "texCoord": 0
        },
        "metallicFactor": 1,
        "metallicRoughnessTexture": {
          "index": 1,
          "texCoord": 0
        },
        "roughnessFactor": 1
      }
    },
    {
      "doubleSided": true,
      "name": "material_1",
      "normalTexture": {
        "index": 5,
        "scale": 1,
        "texCoord": 0
      },
      "pbrMetallicRoughness": {
        "baseColorFactor": [
          1,
          1,
          1,
          1
        ],
        "baseColorTexture": {
          "index": 3,
          "texCoord": 0
        },
        "metallicFactor": 1,
        "metallicRoughnessTexture": {
          "index": 4,
          "texCoord": 0
        },
        "roughnessFactor": 1
      }
    }
  ],
  "meshes": [
    {
      "primitives": [
        {
          "attributes": {
            "NORMAL": 1,
            "POSITION": 0,
            "TANGENT": 2,
            "TEXCOORD_0": 3
          },
          "indices": 4,
          "material": 1,
          "mode": 4
        }
      ]
    },
    {
      "primitives": [
        {
          "attributes": {
            "NORMAL": 6,
            "POSITION": 5,
            "TANGENT": 7,
            "TEXCOORD_0": 8
          },
          "indices": 9,
          "material": 0,
          "mode": 4
        }
      ]
    },
    {
      "primitives": [
        {
          "attributes": {
            "NORMAL": 11,
            "POSITION": 10,
            "TANGENT": 12,
            "TEXCOORD_0": 13
          },
          "indices": 14,
          "material": 0,
          "mode": 4
        }
      ]
    },
    {
      "primitives": [
        {
          "attributes": {
            "NORMAL": 16,
            "POSITION": 15,
            "TANGENT": 17,
            "TEXCOORD_0": 18
          },
          "indices": 19,
          "material": 0,
          "mode": 4
        }
      ]
    }
  ],
  "nodes": [
    {
      "children": [
        1
      ],
      "name": "RootNode (gltf orientation matrix)",
      "rotation": [
        -0.70710678118654746,
        -0,
        -0,
        0.70710678118654757
      ]
    },
    {
      "children": [
        2
      ],
      "name": "RootNode (model correction matrix)"
    },
    {
      "children": [
        3,
        4,
        5,
        6
      ],
      "name": "Poza.obj.cleaner.materialmerger.gles"
    },
    {
      "mesh": 0,
      "name": ""
    },
    {
      "mesh": 1,
      "name": ""
    },
    {
      "mesh": 2,
      "name": ""
    },
    {
      "mesh": 3,
      "name": ""
    }
  ],
  "samplers": [
    {
      "magFilter": 9729,
      "minFilter": 9987,
      "wrapS": 10497,
      "wrapT": 10497
    }
  ],
  "scene": 0,
  "scenes": [
    {
      "name": "OSG_Scene",
      "nodes": [
        0
      ]
    }
  ],
  "textures": [
    {
      "sampler": 0,
      "source": 0
    },
    {
      "sampler": 0,
      "source": 1
    },
    {
      "sampler": 0,
      "source": 2
    },
    {
      "sampler": 0,
      "source": 3
    },
    {
      "sampler": 0,
      "source": 4
    },
    {
      "sampler": 0,
      "source": 5
    }
  ]
}

